/* XPM */
static char * wxMSN_xpm[] = {
"32 32 106 2",
"  	c None",
". 	c #F75B43",
"+ 	c #F77E41",
"@ 	c #F65A43",
"# 	c #F77B3B",
"$ 	c #F3966A",
"% 	c #F59465",
"& 	c #B5318B",
"* 	c #F65A42",
"= 	c #F77B39",
"- 	c #F39464",
"; 	c #F59464",
"> 	c #FBBD2F",
", 	c #F45C44",
"' 	c #F49464",
") 	c #FBBD2D",
"! 	c #FCBD2B",
"~ 	c #F45A43",
"{ 	c #F77D3D",
"] 	c #F78247",
"^ 	c #F59463",
"/ 	c #FBBD2B",
"( 	c #FDBD2B",
"_ 	c #F55A42",
": 	c #F77E40",
"< 	c #F77F41",
"[ 	c #FBBD29",
"} 	c #FDBD2A",
"| 	c #FFBD30",
"1 	c #EF5C44",
"2 	c #F77F42",
"3 	c #F78043",
"4 	c #FCBD2A",
"5 	c #FFBD2A",
"6 	c #FEBE3A",
"7 	c #F45A42",
"8 	c #F05B43",
"9 	c #FFBD29",
"0 	c #FFBD2C",
"a 	c #B5358C",
"b 	c #FEBD2E",
"c 	c #B5368C",
"d 	c #F77C3B",
"e 	c #F39463",
"f 	c #FEBD2A",
"g 	c #FEBE2D",
"h 	c #B5378B",
"i 	c #B5338B",
"j 	c #F67C3E",
"k 	c #F78243",
"l 	c #FDBD37",
"m 	c #FEBD29",
"n 	c #B63A8F",
"o 	c #F67C3D",
"p 	c #F78141",
"q 	c #F19567",
"r 	c #F49463",
"s 	c #FEBD33",
"t 	c #FEBD2F",
"u 	c #F67E41",
"v 	c #F39566",
"w 	c #FDBD36",
"x 	c #FFBD2D",
"y 	c #FEBD2D",
"z 	c #F15A42",
"A 	c #F15B43",
"B 	c #F05C44",
"C 	c #B5328B",
"D 	c #EF5B43",
"E 	c #F37E41",
"F 	c #F39465",
"G 	c #FDBE41",
"H 	c #F29466",
"I 	c #FDBD39",
"J 	c #FEBD2C",
"K 	c #FBBD35",
"L 	c #F05D45",
"M 	c #FDBD2D",
"N 	c #FBBE34",
"O 	c #FABD30",
"P 	c #5EAE57",
"Q 	c #5EAF57",
"R 	c #5CAF55",
"S 	c #5BAF55",
"T 	c #5AAE53",
"U 	c #55AD4D",
"V 	c #54AD4D",
"W 	c #52AD4B",
"X 	c #52AD4C",
"Y 	c #52AD4A",
"Z 	c #52AC4A",
"` 	c #53AC4B",
" .	c #58AD50",
"..	c #56AD4E",
"+.	c #53AD4B",
"@.	c #5AAD52",
"#.	c #57AD4F",
"$.	c #55AD4E",
"%.	c #56AD4F",
"&.	c #53AD4C",
"*.	c #56AE4E",
"=.	c #54AC50",
"-.	c #55AD52",
";.	c #54AC52",
">.	c #54AC53",
",.	c #54AD53",
"                                                                ",
"                                                                ",
"                                                                ",
"                                .       +                       ",
"                                @       #       $ %             ",
"              &                 *       =       - ;         >   ",
"                                * ,     =     ' %         ) !   ",
"                                * ~   { = ]   % ^       / (     ",
"                  &             * _   : = <   ; ^     [ } |     ",
"                                _ _ 1 2 = 3   ^ ^     4 5 6     ",
"                                7 * 8   = <   ^ '   ) 9 0       ",
"                      & a       7 * 7   = 2   ^ -   4 9 b       ",
"                        & c     7 * *   d <   ^ e   f 9 g       ",
"                        h & i     * _   j k   ^   l 9 m         ",
"                          i & n   7 *   o p q r   s 9 t         ",
"                            & &   _ *   u   v   w x y           ",
"            z z z z z A B     & C D *   E   F   t f G           ",
"              A z z z z z z 8       z     H   I J K             ",
"                  A z z z z z z L             M N               ",
"                      z z z z z z z         O                   ",
"                              A z z A                           ",
"                P Q R R S T                                     ",
"  U V W W W W X W Y Y Y Y Y Y Y Y Y Y Z `                       ",
"       ...+.Y Y Y Y Y Y Y Y Y Y Y Y Y Y Y Z                     ",
"                @.#.U +.Y Y Y Y Y Y $.%.&.Y Z                   ",
"                                            Z Z                 ",
"                                              Z *.              ",
"                                              ` Z               ",
"                                                Z               ",
"                                                =.-.            ",
"                                                ;.>.            ",
"                                                  ,.            "};
